<?xml version="1.0" encoding="UTF-8"?> <svg xmlns="http://www.w3.org/2000/svg" viewBox="0 0 811 301" width="811" height="301"><defs></defs><g transform="matrix(1,0,0,1,0,-300)"><rect fill="#ffffff" x="0" y="0" width="812" height="275"></rect><g><g transform="matrix(1,0,0,1,406,137.5)"><g transform="matrix(4.64,0,0,4.64,-1781.76,-1477.74)"><g><path d="M296.5,353.5 C296.5,353.5 471.5,353.5 471.5,353.5 C471.5,353.5 471.5,418.5 471.5,418.5 C471.5,418.5 296.5,418.5 296.5,418.5 C296.5,418.5 296.5,353.5 296.5,353.5 Z" fill="none"></path></g><g><g><g><g><g><g><path d="M319.204266419807,379.60862446061583 C319.505263222185,379.6090844659175 319.806260024563,379.60902446522596 320.107256826941,379.60895779779094 C320.66230322395495,379.6088444631514 321.2173496209689,379.6091244663785 321.77240268472633,379.60964447237166 C322.32056233570256,379.6101578116213 322.8687219866788,379.6104844820529 323.4168883043985,379.61057781646196 C323.4511953664605,379.61058448320546 323.4855024285225,379.61058448320546 323.52084950257085,379.61059114994896 C323.69514484469073,379.61062448366647 323.8694468535541,379.6106511506405 324.043742195674,379.610671150871 C325.27261635867944,379.61085115294554 326.5014971884284,379.61143115963023 327.73037135143386,379.6122445023375 C328.92289842886566,379.61303784481424 330.11541883955397,379.61364451847294 331.307942583614,379.61401118936556 C331.3831601171769,379.61403118959606 331.4583809841115,379.61405785657007 331.5336018510461,379.6140778568006 C332.1449688971661,379.61426452561864 332.7563359432861,379.6144445276932 333.36770632277785,379.61461119628075 C336.18575546799,379.6154178722445 339.00380794657394,379.61714455881156 341.82186042515787,379.61873124376507 C341.82186042515787,384.31203866834767 341.82186042515787,389.00535275967377 341.82186042515787,393.84088849013096 C340.04214991366007,393.842495175315 338.2624394021623,393.844101860499 336.42879826910394,393.8457552128875 C335.3700894006188,393.8469818936919 334.3113805321336,393.8482085744963 333.25267166364847,393.84960192388826 C332.6316645064244,393.850421933339 332.01065401582855,393.8512286093028 331.38964685860446,393.85202195177953 C331.31453599293764,393.85211528618856 331.2394251272708,393.8522152873411 331.164314261604,393.8523086217501 C329.9680104739782,393.8538419727556 328.7717100197242,393.8549553189205 327.5754028987267,393.85585532929326 C326.34534872212134,393.85678867338356 325.1153012122595,393.858135355571 323.8852470356542,393.8600087104951 C323.7112983641964,393.8602753802352 323.53735635948215,393.86053538323176 323.3634076880244,393.86078871948484 C323.3291739601409,393.86084205343286 323.29494023225743,393.8608953873809 323.2596731591311,393.8609420545854 C322.70977348810084,393.86174873054915 322.15988048381405,393.86210873469827 321.60998747952726,393.86230873700333 C321.0564477665448,393.8625154060519 320.50291472030585,393.8631887471456 319.9493816740669,393.864335427028 C319.64975155410684,393.8649421006867 319.3501214341468,393.8653487720403 319.05049131418673,393.86516876996575 C318.77571481400264,393.8650221016087 318.50095164730556,393.86546877342334 318.22618181386497,393.86637545053964 C318.12722067331924,393.8666021198187 318.0282595327735,393.8666154533057 317.9292983922278,393.86638211728314 C317.3601318324763,393.86519543693976 316.81810558552206,393.9005158440141 316.2573391225833,393.99903031274516 C316.13309102393396,394.01865053887195 316.0084562541615,394.0278239779309 315.8830614756298,394.0369240828113 C315.27062775054947,394.13151183961963 314.6040934019493,394.64653110864674 314.2386091896751,395.12599663457695 C313.9584859612023,395.51213441822074 313.6661025914291,395.930859244103 313.6783093987815,396.41892486915094 C313.66316255754464,396.5355328797468 313.64010229177075,396.6501808677531 313.6165420202342,396.7653488617525 C313.57712823264956,396.9646778257229 313.5398544697291,397.1637001194922 313.5064340845529,397.364202430319 C322.85052844366146,397.364202430319 332.1946161360265,397.364202430319 341.82186042515787,397.364202430319 C341.82186042515787,402.0575165216451 341.82186042515787,406.7508306129712 341.82186042515787,411.5863663434284 C327.77027847803765,411.5863663434284 313.71869653091744,411.5863663434284 299.2413096763157,411.5863663434284 C299.2413096763157,395.9253991811747 299.2413096763157,395.9253991811747 299.4337185605309,394.7543390178198 C299.4545254670011,394.62442418719365 299.4729723462715,394.494436022389 299.4905525488866,394.3640478529742 C299.602467172057,393.56911202452284 299.8226897101631,392.802249852959 300.05768575186994,392.03626769153743 C300.06769253386665,392.00358731488996 300.07769931586336,391.970913604986 300.08801276806116,391.9372465503002 C300.6184455480652,390.21770673228093 301.4337682781461,388.39883243607983 302.5820148452367,386.99835629532936 C302.7288965380758,386.81744087691186 302.8739448764518,386.63584545065714 303.0137731546656,386.4494233021069 C303.23810240676903,386.15078652692864 303.48397857387135,385.87947673336566 303.7399881910969,385.60804693841965 C303.81146234818334,385.5314660558106 303.88044314319995,385.4529318173554 303.9489105989669,385.3736575703715 C304.28064775563325,384.99199983836115 304.61721830133865,384.6347090538511 304.9989227005535,384.3021585544775 C305.0688101726864,384.23868448959365 305.1386376441278,384.1751237570443 305.20838511464717,384.1114896903164 C307.9369298949714,381.66550816658673 311.36954945655634,380.16270417982196 316.0050162145144,379.6555916685884 C316.0599035137675,379.65296497164854 316.0599035137675,379.65296497164854 316.11590415918545,379.6502916075042 C317.1448026841008,379.6023710552108 318.1745012182364,379.6069777749708 319.204266419807,379.60862446061583 C319.204266419807,379.60862446061583 319.204266419807,379.60862446061583 319.204266419807,379.60862446061583 C319.204266419807,379.60862446061583 319.204266419807,379.60862446061583 319.204266419807,379.60862446061583 C319.204266419807,379.60862446061583 319.204266419807,379.60862446061583 319.204266419807,379.60862446061583 C319.204266419807,379.60862446061583 319.204266419807,379.60862446061583 319.204266419807,379.60862446061583 ZM313.59236840829544,396.2900233835371 C313.6353422369102,396.41892486915094 313.6353422369102,396.41892486915094 313.6353422369102,396.41892486915094 C313.6353422369102,396.41892486915094 313.59236840829544,396.2900233835371 313.59236840829544,396.2900233835371 C313.59236840829544,396.2900233835371 313.59236840829544,396.2900233835371 313.59236840829544,396.2900233835371 C313.59236840829544,396.2900233835371 313.59236840829544,396.2900233835371 313.59236840829544,396.2900233835371 C313.59236840829544,396.2900233835371 313.59236840829544,396.2900233835371 313.59236840829544,396.2900233835371 ZM313.54940124642417,396.4618920310222 C313.59236840829544,396.59079351663604 313.59236840829544,396.59079351663604 313.59236840829544,396.59079351663604 C313.59236840829544,396.59079351663604 313.54940124642417,396.4618920310222 313.54940124642417,396.4618920310222 C313.54940124642417,396.4618920310222 313.54940124642417,396.4618920310222 313.54940124642417,396.4618920310222 C313.54940124642417,396.4618920310222 313.54940124642417,396.4618920310222 313.54940124642417,396.4618920310222 C313.54940124642417,396.4618920310222 313.54940124642417,396.4618920310222 313.54940124642417,396.4618920310222 ZM313.5064340845529,396.6337606785073 C313.54940124642417,396.76266216412114 313.54940124642417,396.76266216412114 313.54940124642417,396.76266216412114 C313.54940124642417,396.76266216412114 313.5064340845529,396.6337606785073 313.5064340845529,396.6337606785073 C313.5064340845529,396.6337606785073 313.5064340845529,396.6337606785073 313.5064340845529,396.6337606785073 C313.5064340845529,396.6337606785073 313.5064340845529,396.6337606785073 313.5064340845529,396.6337606785073 C313.5064340845529,396.6337606785073 313.5064340845529,396.6337606785073 313.5064340845529,396.6337606785073 ZM313.4634669226816,396.89156364973496 C313.4634669226816,396.9624578001367 313.4634669226816,397.0333586172819 313.4634669226816,397.10639945909134 C313.47764708611066,397.10639945909134 313.4918272495397,397.10639945909134 313.5064340845529,397.10639945909134 C313.5064340845529,397.0355053086896 313.5064340845529,396.9646044915444 313.5064340845529,396.89156364973496 C313.49226058786735,396.89156364973496 313.4780804244383,396.89156364973496 313.4634669226816,396.89156364973496 C313.4634669226816,396.89156364973496 313.4634669226816,396.89156364973496 313.4634669226816,396.89156364973496 C313.4634669226816,396.89156364973496 313.4634669226816,396.89156364973496 313.4634669226816,396.89156364973496 C313.4634669226816,396.89156364973496 313.4634669226816,396.89156364973496 313.4634669226816,396.89156364973496 C313.4634669226816,396.89156364973496 313.4634669226816,396.89156364973496 313.4634669226816,396.89156364973496 ZM313.42049976081034,397.23530094470516 C313.4634669226816,397.364202430319 313.4634669226816,397.364202430319 313.4634669226816,397.364202430319 C313.4634669226816,397.364202430319 313.42049976081034,397.23530094470516 313.42049976081034,397.23530094470516 C313.42049976081034,397.23530094470516 313.42049976081034,397.23530094470516 313.42049976081034,397.23530094470516 C313.42049976081034,397.23530094470516 313.42049976081034,397.23530094470516 313.42049976081034,397.23530094470516 C313.42049976081034,397.23530094470516 313.42049976081034,397.23530094470516 313.42049976081034,397.23530094470516 Z" fill="#ffffff"></path></g></g></g></g></g><g><g><g transform="matrix(1.29898587,0,0,1.29898587,-105.774865824,-119.514153001)"><path d="M355.97046348148797,406.7804709545817 C355.64909977771094,406.7804709545817 355.3370695148369,406.72634366408784 355.0343860263529,406.61808908310013 C354.73544258097354,406.5098345021124 354.4738595661802,406.35546605632044 354.2496569822033,406.15499041246767 C354.0254410647394,405.9545147686149 353.8684925892121,405.7159520191344 353.77881155562136,405.4392954972827 C354.15249586240316,405.29094712087317 354.33933801579406,405.2167729326684 354.33933801579406,405.2167729326684 C354.4028654146259,405.4052151044998 354.51870674971906,405.5696036657755 354.68686202107347,405.7099386164955 C354.8550172924279,405.8462601876272 355.05120622020877,405.9505080557701 355.27541547092915,406.02267555418075 C355.5033647647542,406.0948497193349 355.7350474349405,406.13093680191196 355.97046348148797,406.13093680191196 C356.2432532921084,406.13093680191196 356.4992295756165,406.08282291405703 356.73839233201215,405.9865951383472 C356.9775417549208,405.88636064979255 357.169990639597,405.7480323888667 357.31573231929724,405.57161035556965 C357.46146733225396,405.3951883222726 357.5343348387323,405.18669925273025 357.5343348387323,404.9461298134556 C357.5343348387323,404.7015469945927 357.45772728914926,404.50107135073995 357.30451885672665,404.3447028818973 C357.1550438006652,404.1883344130547 356.96072822780843,404.066046336995 356.72157213815626,403.9778386537182 C356.4824160485041,403.88561759085314 356.2320464962813,403.8134500924425 355.97046348148797,403.7613228249993 C355.5594187441202,403.6851419470004 355.1913345018802,403.58089407885745 354.86623075499847,403.44857922057054 C354.54112700811675,403.3162643622836 354.2832840364281,403.12982888024635 354.092708506676,402.8892594409717 C353.9021263101804,402.6486900016971 353.80683854530434,402.3299329946294 353.80683854530434,401.93299508651216 C353.80683854530434,401.5601107889506 353.9077330414657,401.23734706903815 354.1095220337884,400.96469726003124 C354.31131102611107,400.68804740492305 354.5766274172656,400.47554495579243 354.90546454050855,400.32718991263937 C355.23430833049497,400.1748281566415 355.5893124219838,400.0986472786426 355.97046348148797,400.0986472786426 C356.2806270561814,400.0986472786426 356.58517723284604,400.1507678793423 356.8841273449689,400.25501574748523 C357.1830707903482,400.35926361562815 357.44652049332217,400.511625371626 357.67446978714725,400.71210101547877 C357.9024124142288,400.91257665933153 358.06683430922203,401.15715281145094 358.1677288053834,401.4458361385805 C357.7865710791357,401.59419118173355 357.5959888826401,401.66836536993833 357.5959888826401,401.66836536993833 C357.5324681505517,401.47190310567385 357.4166201487151,401.305507854604 357.2484648773607,401.1691862834723 C357.08030960600627,401.0328580455971 356.8841273449689,400.9286101774542 356.659911427505,400.85644267904354 C356.4357021767846,400.7842751806329 356.20588619477894,400.74818809805583 355.97046348148797,400.74818809805583 C355.6976736708675,400.74418138521105 355.44170405410296,400.792295273066 355.2025479644508,400.8925297616206 C354.9671252511598,400.99276425017524 354.7765497214077,401.1310925111011 354.6308080417075,401.30750787765464 C354.4850730287508,401.4839299109517 354.4122055222724,401.69242564723754 354.4122055222724,401.93299508651216 C354.4122055222724,402.20964494162035 354.4794662974655,402.422147390751 354.6139945145951,402.57050243390404 C354.75225610808593,402.7188574770571 354.93909826147683,402.8311187708896 355.1745209747678,402.9072996488885 C355.4099436880588,402.97946714729915 355.67526007921333,403.04562790981436 355.97046348148797,403.10576860294714 C356.35536125084036,403.173929388513 356.71223203050977,403.28419065929484 357.0410758204962,403.4365524152927 C357.3699129437391,403.58490745844574 357.63522933489367,403.78337641250437 357.83701832721636,404.03196594421206 C358.03880731953905,404.27654209633147 358.1397018157004,404.58126560832716 358.1397018157004,404.9461298134556 C358.1397018157004,405.3150007314289 358.03880731953905,405.63776445134135 357.83701832721636,405.91442097319305 C357.63522933489367,406.19107749504474 357.3699129437391,406.4055866339695 357.0410758204962,406.55794838996735 C356.71223203050977,406.7062967663769 356.35536125084036,406.7804709545817 355.97046348148797,406.7804709545817 C355.97046348148797,406.7804709545817 355.97046348148797,406.7804709545817 355.97046348148797,406.7804709545817 C355.97046348148797,406.7804709545817 355.97046348148797,406.7804709545817 355.97046348148797,406.7804709545817 C355.97046348148797,406.7804709545817 355.97046348148797,406.7804709545817 355.97046348148797,406.7804709545817 ZM364.935380137169,406.7804709545817 C364.5392755719895,406.7804709545817 364.1786714159589,406.672216373594 363.85356766907717,406.4557072116186 C363.52846392219544,406.2351846700549 363.2687475955827,405.9404879402864 363.0744386894694,405.57161035556965 C362.8801164498691,405.2027327708529 362.78296199681245,404.7957680805084 362.78296199681245,404.35071628453625 C362.78296199681245,404.0139190695518 362.8390159761784,403.6991754420724 362.95111726816685,403.40648540209804 C363.0632252268988,403.1097819825354 363.2164403260649,402.8491589788064 363.4107492321782,402.6246297243979 C363.6088048481397,402.4001004699894 363.8386208301454,402.2256851264865 364.10019717819523,402.10139036063265 C364.3617735262451,401.973088881934 364.64017006815084,401.90893480921295 364.935380137169,401.90893480921295 C365.33148470234846,401.90893480921295 365.69208885837907,402.0191960799948 366.0171926052608,402.2397186215585 C366.342303018886,402.4602411631222 366.6020126787553,402.75493789289067 366.79632825161207,403.1238154776074 C366.99064382446886,403.4926863955807 367.087804944269,403.9016511089758 367.087804944269,404.35071628453625 C367.087804944269,404.6875134995207 367.03175096490304,405.0022637937436 366.9196430061711,405.29495383371795 C366.80753504743916,405.5876438736923 366.65245992683595,405.8462601876272 366.45441097761795,406.0707894420357 C366.26008873801766,406.29131198359937 366.0321461109361,406.4657273271023 365.7705630961427,406.5940288058009 C365.51272012445406,406.71832357165476 365.2343302492918,406.7804709545817 364.935380137169,406.7804709545817 C364.935380137169,406.7804709545817 364.935380137169,406.7804709545817 364.935380137169,406.7804709545817 C364.935380137169,406.7804709545817 364.935380137169,406.7804709545817 364.935380137169,406.7804709545817 C364.935380137169,406.7804709545817 364.935380137169,406.7804709545817 364.935380137169,406.7804709545817 ZM364.935380137169,406.13093680191196 C365.2268568298259,406.13093680191196 365.4902998660564,406.0487425212741 365.72572257934735,405.8843539599984 C365.9611452926383,405.7199587319792 366.1461140911051,405.5034495700038 366.28064230823475,405.2348131405852 C366.41890390172557,404.96216333157827 366.48803803184273,404.6674666018098 366.48803803184273,404.35071628453625 C366.48803803184273,404.02594587482963 366.41890390172557,403.72724243221637 366.28064230823475,403.45459928995297 C366.1423807147439,403.18194948094606 365.955538561353,402.96544031897065 365.72011584806205,402.80505847053973 C365.4884331778758,402.64066990926403 365.2268568298259,402.5584756286262 364.935380137169,402.5584756286262 C364.64391011125554,402.5584756286262 364.3804604082816,402.64066990926403 364.1450376949906,402.80505847053973 C363.91335502480433,402.96944703181543 363.72837955959403,403.187962883585 363.5901179661032,403.4606126925919 C363.4555897489736,403.7292491220105 363.3883289737805,404.02594587482963 363.3883289737805,404.35071628453625 C363.3883289737805,404.68350678667593 363.4574631038977,404.98421691908334 363.5957246973885,405.25285334850196 C363.737726333984,405.5214897779206 363.9264351755555,405.73599891684535 364.161851222103,405.89638076527626 C364.39728060213747,406.0527492341189 364.65511690708263,406.13093680191196 364.935380137169,406.13093680191196 C364.935380137169,406.13093680191196 364.935380137169,406.13093680191196 364.935380137169,406.13093680191196 C364.935380137169,406.13093680191196 364.935380137169,406.13093680191196 364.935380137169,406.13093680191196 C364.935380137169,406.13093680191196 364.935380137169,406.13093680191196 364.935380137169,406.13093680191196 ZM371.7710189191894,406.6601895683161 C371.7710189191894,406.6601895683161 371.7710189191894,399.73177638372 371.7710189191894,399.73177638372 C371.7710189191894,399.73177638372 372.37638589615744,399.73177638372 372.37638589615744,399.73177638372 C372.37638589615744,399.73177638372 372.37638589615744,406.6601895683161 372.37638589615744,406.6601895683161 C372.37638589615744,406.6601895683161 371.7710189191894,406.6601895683161 371.7710189191894,406.6601895683161 C371.7710189191894,406.6601895683161 371.7710189191894,406.6601895683161 371.7710189191894,406.6601895683161 C371.7710189191894,406.6601895683161 371.7710189191894,406.6601895683161 371.7710189191894,406.6601895683161 ZM377.21506832954765,404.8920025229618 C377.21506832954765,404.8920025229618 377.21506832954765,402.04124966749987 377.21506832954765,402.04124966749987 C377.21506832954765,402.04124966749987 377.8204353065157,402.04124966749987 377.8204353065157,402.04124966749987 C377.8204353065157,402.04124966749987 377.8204353065157,404.75968766467486 377.8204353065157,404.75968766467486 C377.8204353065157,405.01228390922734 377.8764892858817,405.24283323301825 377.9885905778701,405.4513223025606 C378.10443191296326,405.65581132600164 378.25951370031,405.82019988727734 378.4538292731668,405.9444946531312 C378.64814484602357,406.06878941898503 378.86114063417335,406.13093680191196 379.0928233043596,406.13093680191196 C379.3282460176506,406.13093680191196 379.5412484725439,406.06878941898503 379.7318306690395,405.9444946531312 C379.9224061987916,405.82019988727734 380.0756146312142,405.65581132600164 380.19145596630733,405.4513223025606 C380.30729730140047,405.24283323301825 380.36522463569054,405.01228390922734 380.36522463569054,404.75968766467486 C380.36522463569054,402.94739344431036 380.36522463569054,402.04124966749987 380.36522463569054,402.04124966749987 C380.36522463569054,402.04124966749987 380.9649848813733,402.04124966749987 380.9649848813733,402.04124966749987 C380.9649848813733,402.04124966749987 380.9705916126586,406.6601895683161 380.9705916126586,406.6601895683161 C380.9705916126586,406.6601895683161 380.37082470023233,406.6601895683161 380.37082470023233,406.6601895683161 C380.37082470023233,406.6601895683161 380.36522463569054,406.0106487489029 380.36522463569054,406.0106487489029 C380.2120095365244,406.24721147533273 380.0139605873064,406.43566031390765 379.77106445454956,406.57598859788413 C379.5281683217927,406.71231016901584 379.26471861881873,406.7804709545817 378.9807220123712,406.7804709545817 C378.65561826548947,406.7804709545817 378.3585415082907,406.6962699841497 378.0894850740315,406.5278747100292 C377.8241686828769,406.35546605632044 377.61117289472713,406.1269300890672 377.4504843760951,405.8422534747824 C377.2935359005678,405.55757686049765 377.21506832954765,405.2408265432241 377.21506832954765,404.8920025229618 C377.21506832954765,404.8920025229618 377.21506832954765,404.8920025229618 377.21506832954765,404.8920025229618 C377.21506832954765,404.8920025229618 377.21506832954765,404.8920025229618 377.21506832954765,404.8920025229618 C377.21506832954765,404.8920025229618 377.21506832954765,404.8920025229618 377.21506832954765,404.8920025229618 ZM388.01625948197034,402.6907838201696 C388.01625948197034,402.6907838201696 386.9848942619592,402.6907838201696 386.9848942619592,402.6907838201696 C386.9848942619592,402.6907838201696 386.9792875306739,406.6601895683161 386.9792875306739,406.6601895683161 C386.9792875306739,406.6601895683161 386.3795272849911,406.6601895683161 386.3795272849911,406.6601895683161 C386.3795272849911,406.6601895683161 386.3851340162764,402.6907838201696 386.3851340162764,402.6907838201696 C386.3851340162764,402.6907838201696 385.60600503666865,402.6907838201696 385.60600503666865,402.6907838201696 C385.60600503666865,402.6907838201696 385.60600503666865,402.04124966749987 385.60600503666865,402.04124966749987 C385.60600503666865,402.04124966749987 386.3851340162764,402.04124966749987 386.3851340162764,402.04124966749987 C386.3851340162764,402.04124966749987 386.3795272849911,400.5918129624697 386.3795272849911,400.5918129624697 C386.3795272849911,400.5918129624697 386.9792875306739,400.5918129624697 386.9792875306739,400.5918129624697 C386.9792875306739,400.5918129624697 386.9848942619592,402.04124966749987 386.9848942619592,402.04124966749987 C386.9848942619592,402.04124966749987 388.01625948197034,402.04124966749987 388.01625948197034,402.04124966749987 C388.01625948197034,402.04124966749987 388.01625948197034,402.6907838201696 388.01625948197034,402.6907838201696 C388.01625948197034,402.6907838201696 388.01625948197034,402.6907838201696 388.01625948197034,402.6907838201696 C388.01625948197034,402.6907838201696 388.01625948197034,402.6907838201696 388.01625948197034,402.6907838201696 ZM392.7355738729548,402.04124966749987 C392.7355738729548,402.04124966749987 393.34094084992284,402.04124966749987 393.34094084992284,402.04124966749987 C393.34094084992284,402.04124966749987 393.34094084992284,406.6601895683161 393.34094084992284,406.6601895683161 C393.34094084992284,406.6601895683161 392.7355738729548,406.6601895683161 392.7355738729548,406.6601895683161 C392.7355738729548,406.6601895683161 392.7355738729548,402.04124966749987 392.7355738729548,402.04124966749987 C392.7355738729548,402.04124966749987 392.7355738729548,402.04124966749987 392.7355738729548,402.04124966749987 C392.7355738729548,402.04124966749987 392.7355738729548,402.04124966749987 392.7355738729548,402.04124966749987 ZM393.0382573614388,401.235340379244 C392.94110290838216,401.235340379244 392.8588886275138,401.2012599864611 392.79162785232074,401.13309920089523 C392.7243670771277,401.0609317024846 392.6907333561594,400.9727173524643 392.6907333561594,400.8684694843214 C392.6907333561594,400.7642216161785 392.7243670771277,400.67802062269584 392.79162785232074,400.60985983713 C392.8588886275138,400.53769233871935 392.94110290838216,400.5016052561423 393.0382573614388,400.5016052561423 C393.13541848123896,400.5016052561423 393.2176260953638,400.53769233871935 393.2848935373004,400.60985983713 C393.35215431249344,400.67802062269584 393.3857880334617,400.7642216161785 393.3857880334617,400.8684694843214 C393.3857880334617,400.9727173524643 393.35215431249344,401.0609317024846 393.2848935373004,401.13309920089523 C393.2213661384685,401.2012599864611 393.13915185760015,401.235340379244 393.0382573614388,401.235340379244 C393.0382573614388,401.235340379244 393.0382573614388,401.235340379244 393.0382573614388,401.235340379244 C393.0382573614388,401.235340379244 393.0382573614388,401.235340379244 393.0382573614388,401.235340379244 C393.0382573614388,401.235340379244 393.0382573614388,401.235340379244 393.0382573614388,401.235340379244 ZM400.2049199585708,406.7804709545817 C399.80881539339134,406.7804709545817 399.44820457061724,406.672216373594 399.1231008237355,406.4557072116186 C398.7979970768538,406.2351846700549 398.53828741698453,405.9404879402864 398.34397184412774,405.57161035556965 C398.14965627127094,405.2027327708529 398.0524951514708,404.7957680805084 398.0524951514708,404.35071628453625 C398.0524951514708,404.0139190695518 398.10854913083676,403.6991754420724 398.2206570895687,403.40648540209804 C398.33275838155714,403.1097819825354 398.48597348072326,402.8491589788064 398.68028905358005,402.6246297243979 C398.87833800279805,402.4001004699894 399.1081539848037,402.2256851264865 399.3697369995971,402.10139036063265 C399.63131334764694,401.973088881934 399.9097098895527,401.90893480921295 400.2049199585708,401.90893480921295 C400.6010245237503,401.90893480921295 400.9616286797809,402.0191960799948 401.28673242666264,402.2397186215585 C401.61184284028786,402.4602411631222 401.8715525001571,402.75493789289067 402.0658614062704,403.1238154776074 C402.2601836458707,403.4926863955807 402.35733143218386,403.9016511089758 402.35733143218386,404.35071628453625 C402.35733143218386,404.6875134995207 402.3012774528179,405.0022637937436 402.18918282757295,405.29495383371795 C402.077074868841,405.5876438736923 401.9219930814943,405.8462601876272 401.7239374655328,406.0707894420357 C401.5296285594195,406.29131198359937 401.30167926559443,406.4657273271023 401.0401029175446,406.5940288058009 C400.7822599458559,406.71832357165476 400.50386340395016,406.7804709545817 400.2049199585708,406.7804709545817 C400.2049199585708,406.7804709545817 400.2049199585708,406.7804709545817 400.2049199585708,406.7804709545817 C400.2049199585708,406.7804709545817 400.2049199585708,406.7804709545817 400.2049199585708,406.7804709545817 C400.2049199585708,406.7804709545817 400.2049199585708,406.7804709545817 400.2049199585708,406.7804709545817 ZM400.2049199585708,406.13093680191196 C400.49638998448427,406.13093680191196 400.7598396874582,406.0487425212741 400.9952557340057,405.8843539599984 C401.23067844729667,405.7199587319792 401.41565391250697,405.5034495700038 401.5501821296366,405.2348131405852 C401.6884437231274,404.96216333157827 401.7575778532446,404.6674666018098 401.7575778532446,404.35071628453625 C401.7575778532446,404.02594587482963 401.6884437231274,403.72724243221637 401.5501821296366,403.45459928995297 C401.41191386940227,403.18194948094606 401.22507171601137,402.96544031897065 400.9896556694639,402.80505847053973 C400.7579663325341,402.64066990926403 400.49638998448427,402.5584756286262 400.2049199585708,402.5584756286262 C399.9134432659139,402.5584756286262 399.6499935629399,402.64066990926403 399.41457751639246,402.80505847053973 C399.1828948462062,402.96944703181543 398.9979193809959,403.187962883585 398.85965778750506,403.4606126925919 C398.72512957037543,403.7292491220105 398.65786879518237,404.02594587482963 398.65786879518237,404.35071628453625 C398.65786879518237,404.68350678667593 398.726996258556,404.98421691908334 398.86525785204685,405.25285334850196 C399.0072594886424,405.5214897779206 399.1959683302139,405.73599891684535 399.43139104350485,405.89638076527626 C399.6668137567958,406.0527492341189 399.9246567284845,406.13093680191196 400.2049199585708,406.13093680191196 C400.2049199585708,406.13093680191196 400.2049199585708,406.13093680191196 400.2049199585708,406.13093680191196 C400.2049199585708,406.13093680191196 400.2049199585708,406.13093680191196 400.2049199585708,406.13093680191196 C400.2049199585708,406.13093680191196 400.2049199585708,406.13093680191196 400.2049199585708,406.13093680191196 ZM410.82621570433184,403.8034233102153 C410.82621570433184,403.8034233102153 410.82621570433184,406.6601895683161 410.82621570433184,406.6601895683161 C410.82621570433184,406.6601895683161 410.22083539387677,406.6601895683161 410.22083539387677,406.6601895683161 C410.22083539387677,406.6601895683161 410.22083539387677,403.9297247658633 410.22083539387677,403.9297247658633 C410.22083539387677,403.6771285213108 410.1629147263302,403.44858588731404 410.04707339123706,403.244096863873 C409.9349787659921,403.03560779433064 409.781763666826,402.87121923305494 409.5874414272257,402.7509311800459 C409.3968658974736,402.62663641419203 409.18386344258033,402.5644890312651 408.94844739603286,402.5644890312651 C408.7167647258466,402.5644890312651 408.5037622709533,402.62663641419203 408.30945336484,402.7509311800459 C408.1151311252397,402.87121923305494 407.960049337893,403.03560779433064 407.84420800279986,403.244096863873 C407.7321133775549,403.44858588731404 407.67605939818895,403.6771285213108 407.67605939818895,403.9297247658633 C407.67605939818895,405.75003241191735 407.67605939818895,406.6601895683161 407.67605939818895,406.6601895683161 C407.67605939818895,406.6601895683161 407.0706924212209,406.6601895683161 407.0706924212209,406.6601895683161 C407.0706924212209,406.6601895683161 407.0706924212209,402.04124966749987 407.0706924212209,402.04124966749987 C407.0706924212209,402.04124966749987 407.67605939818895,402.04124966749987 407.67605939818895,402.04124966749987 C407.67605939818895,402.04124966749987 407.67605939818895,402.67875701489174 407.67605939818895,402.67875701489174 C407.82552778750687,402.4462076680502 408.02171671528777,402.2597655192694 408.26461284804464,402.11943056854943 C408.5112423571627,401.97910228457295 408.77841876975435,401.90893480921295 409.0661554193066,401.90893480921295 C409.3912658329318,401.90893480921295 409.68646923520646,401.9951424694391 409.9517922931045,402.16755112314786 C410.2171020175156,402.33594639726834 410.42823778422826,402.5644890312651 410.5851862597556,402.85317235839466 C410.7458681116441,403.1378489726794 410.82621570433184,403.45459928995297 410.82621570433184,403.8034233102153 C410.82621570433184,403.8034233102153 410.82621570433184,403.8034233102153 410.82621570433184,403.8034233102153 C410.82621570433184,403.8034233102153 410.82621570433184,403.8034233102153 410.82621570433184,403.8034233102153 C410.82621570433184,403.8034233102153 410.82621570433184,403.8034233102153 410.82621570433184,403.8034233102153 ZM416.99590014443675,406.75040394138705 C416.76047076440227,406.742383848954 416.5306547823966,406.6962699841497 416.3064521984197,406.6120756804612 C416.08596965731704,406.5238679971844 415.89166075120374,406.4055866339695 415.72349881310583,406.25723159081645 C415.5590835848561,406.1088832144069 415.4395088734018,405.9404879402864 415.36476134525583,405.7520391017115 C415.71228535053524,405.59567063286886 415.88606068666195,405.5174830650758 415.88606068666195,405.5174830650758 C415.9346345798185,405.63375773849657 416.0205822370481,405.7420189862278 416.1438903248636,405.8422534747824 C416.26721174616614,405.94248796333704 416.40921338276166,406.02268222092425 416.5698952346502,406.08282291405703 C416.7305770865387,406.1429636071898 416.8912589384272,406.17303728712795 417.0519541238027,406.17303728712795 C417.227582814623,406.17303728712795 417.39013135469213,406.1429636071898 417.53959974401005,406.08282291405703 C417.69281484317617,406.02268222092425 417.8161362644787,405.934467870904 417.90955067443065,405.8181931974832 C418.0067117942308,405.7019185240624 418.05528568738737,405.5655969529307 418.05528568738737,405.4092284840881 C418.05528568738737,405.2408265432241 418.0029784178696,405.1085116849372 417.89833721186005,405.01228390922734 C417.7974427156987,404.9120494206727 417.6685212298544,404.83386185287964 417.51158608781407,404.77772787259164 C417.35463761228675,404.72160055904715 417.19207573873064,404.6674732685533 417.02392713411973,404.6153460011101 C416.7212436456357,404.5271383178333 416.45218721137644,404.4289038523293 416.21677116482897,404.3206492713416 C415.9850751611557,404.2123880236104 415.8038464057936,404.07405976268456 415.67305823176866,403.90566448856407 C415.54227005774374,403.7372692144436 415.47686930398777,403.5207533857247 415.47686930398777,403.25612366915084 C415.47686930398777,402.97546043445436 415.54973681046613,402.7328909721291 415.69547182342285,402.52840194868804 C415.84495354622777,402.3239195919905 416.03926245234106,402.1655444333537 416.27842520873673,402.0532764727777 C416.5213213414936,401.94101517894524 416.77916431318226,401.88488119865724 417.0519541238027,401.88488119865724 C417.3994781290821,401.88488119865724 417.71710845649795,401.9670754792951 418.0048451060502,402.1314640405708 C418.29631513196364,402.2918458890017 418.5055842104957,402.5083550509771 418.63262567467245,402.7809981932405 C418.31126197089543,402.9854872166816 418.1505801190069,403.08772839503035 418.1505801190069,403.08772839503035 C418.09825951600214,402.9634336291765 418.0160585686208,402.8551790481888 417.90395060988885,402.76295798532374 C417.7918426511569,402.6707369224587 417.6647878534932,402.59856942404804 417.52278621689766,402.5464421566048 C417.38078458030213,402.4943215559051 417.236916255526,402.4662545657611 417.0911812425693,402.46224785291633 C416.9043390891784,402.45824114007155 416.7324437747193,402.48630146347205 416.57549529919197,402.5464421566048 C416.41856015715166,402.6065828497376 416.2915053594879,402.6947971997579 416.1943442396878,402.81107187317866 C416.10092982973583,402.92734654659944 416.05420929127285,403.0716882101642 416.05420929127285,403.244096863873 C416.05420929127285,403.41249213799347 416.10092982973583,403.5408002834356 416.1943442396878,403.6290079667124 C416.2877586496397,403.71721564998916 416.41481344730346,403.7893898151433 416.57549529919197,403.8455237954313 C416.7399238609287,403.897644396131 416.924899326139,403.9577850892638 417.13042169482287,404.02595254157313 C417.38826466651153,404.1181669376947 417.6311607992684,404.2204081160435 417.8591100930935,404.33267607661946 C418.09079276327975,404.44494403719546 418.27763491667065,404.5872790109661 418.4196365532662,404.75968766467486 C418.5616248563747,404.92808293879534 418.63075898649186,405.14058538792597 418.62702561013066,405.39719501206673 C418.62702561013066,405.6738515339184 418.5485580391105,405.9164276629872 418.3916095635832,406.12492339927303 C418.23839446441707,406.3294057559706 418.038472160275,406.48778091460736 417.7918426511569,406.60004887518335 C417.54521314203885,406.70830345617105 417.2798900841408,406.7584240338201 416.99590014443675,406.75040394138705 C416.99590014443675,406.75040394138705 416.99590014443675,406.75040394138705 416.99590014443675,406.75040394138705 C416.99590014443675,406.75040394138705 416.99590014443675,406.75040394138705 416.99590014443675,406.75040394138705 C416.99590014443675,406.75040394138705 416.99590014443675,406.75040394138705 416.99590014443675,406.75040394138705 Z" fill="#ffffff"></path></g></g></g><g><g><g><g><path d="M353.7788115645981,376.2904462179886 C353.7788115645981,376.2904462179886 368.93106619717764,376.2904462179886 368.93106619717764,376.2904462179886 C368.93106619717764,376.2904462179886 368.93106619717764,379.24871364590945 368.93106619717764,379.24871364590945 C368.93106619717764,379.24871364590945 357.35474611124846,379.24871364590945 357.35474611124846,379.24871364590945 C357.35474611124846,379.24871364590945 357.35474611124846,385.01879348049624 357.35474611124846,385.01879348049624 C357.35474611124846,385.01879348049624 367.71888555990154,385.01879348049624 367.71888555990154,385.01879348049624 C367.71888555990154,385.01879348049624 367.71888555990154,387.9477672374687 367.71888555990154,387.9477672374687 C367.71888555990154,387.9477672374687 357.35474611124846,387.9477672374687 357.35474611124846,387.9477672374687 C357.35474611124846,387.9477672374687 357.35474611124846,393.8350084223621 357.35474611124846,393.8350084223621 C357.35474611124846,393.8350084223621 369.2947237217322,393.8350084223621 369.2947237217322,393.8350084223621 C369.2947237217322,393.8350084223621 369.2947237217322,396.79327585028295 369.2947237217322,396.79327585028295 C369.2947237217322,396.79327585028295 353.7788115645981,396.79327585028295 353.7788115645981,396.79327585028295 C353.7788115645981,396.79327585028295 353.7788115645981,376.2904462179886 353.7788115645981,376.2904462179886 C353.7788115645981,376.2904462179886 353.7788115645981,376.2904462179886 353.7788115645981,376.2904462179886 C353.7788115645981,376.2904462179886 353.7788115645981,376.2904462179886 353.7788115645981,376.2904462179886 C353.7788115645981,376.2904462179886 353.7788115645981,376.2904462179886 353.7788115645981,376.2904462179886 C353.7788115645981,376.2904462179886 353.7788115645981,376.2904462179886 353.7788115645981,376.2904462179886 ZM385.38641584817196,388.006347912622 C385.38641584817196,386.7957072930949 385.04296522317236,385.8437896553987 384.35606397317315,385.1505949995335 C383.66916272317394,384.45740701041177 382.71961844616453,384.11080968247916 381.5074378088884,384.11080968247916 C380.0730279437121,384.1303365741969 378.946708296,384.6185022003974 378.1284855324957,385.57529989433715 C377.3102627689914,386.5320975882769 376.9011513872392,387.72321131608624 376.9011513872392,389.1486477445087 C376.25465726960647,389.1486477445087 375.93140687741834,389.1486477445087 375.93140687741834,389.1486477445087 C375.93140687741834,387.2155254649115 376.21425013724,385.6631675736953 376.77993665688336,384.4915807376037 C377.3456165097832,383.31998723476863 378.14868576530716,382.46570405566126 379.1891444234552,381.9287245335381 C380.22959641485977,381.39174501141497 381.45693056011623,381.1232552503534 382.8711401924811,381.1232552503534 C384.12372796212367,381.1232552503534 385.19954036106355,381.36733806345364 386.09857072255727,381.85550368965414 C386.9976077507945,382.34366264911114 387.6845090007937,383.0319705819893 388.1592811392984,383.9204274882886 C388.6340466110596,384.80888439458795 388.8714360136837,385.8779633825907 388.8714360136837,387.1276577855533 C388.8714360136837,393.57139871754407 388.8714360136837,396.79327585028295 388.8714360136837,396.79327585028295 C388.8714360136837,396.79327585028295 385.38641584817196,396.79327585028295 385.38641584817196,396.79327585028295 C385.38641584817196,396.79327585028295 385.38641584817196,388.006347912622 385.38641584817196,388.006347912622 C385.38641584817196,388.006347912622 385.38641584817196,388.006347912622 385.38641584817196,388.006347912622 C385.38641584817196,388.006347912622 385.38641584817196,388.006347912622 385.38641584817196,388.006347912622 C385.38641584817196,388.006347912622 385.38641584817196,388.006347912622 385.38641584817196,388.006347912622 C385.38641584817196,388.006347912622 385.38641584817196,388.006347912622 385.38641584817196,388.006347912622 ZM373.4464382376882,381.24041660065996 C373.4464382376882,381.24041660065996 376.93145840319994,381.24041660065996 376.93145840319994,381.24041660065996 C376.93145840319994,381.24041660065996 376.93145840319994,396.79327585028295 376.93145840319994,396.79327585028295 C376.93145840319994,396.79327585028295 373.4464382376882,396.79327585028295 373.4464382376882,396.79327585028295 C373.4464382376882,396.79327585028295 373.4464382376882,381.24041660065996 373.4464382376882,381.24041660065996 C373.4464382376882,381.24041660065996 373.4464382376882,381.24041660065996 373.4464382376882,381.24041660065996 C373.4464382376882,381.24041660065996 373.4464382376882,381.24041660065996 373.4464382376882,381.24041660065996 C373.4464382376882,381.24041660065996 373.4464382376882,381.24041660065996 373.4464382376882,381.24041660065996 C373.4464382376882,381.24041660065996 373.4464382376882,381.24041660065996 373.4464382376882,381.24041660065996 ZM397.6294369512889,391.87259913855996 C397.6294369512889,392.71223548219314 397.78095869760546,393.28338873150824 398.0840088569821,393.58604555301827 C398.38705234961526,393.8887090412718 398.81131057260427,394.0400374520268 399.35679685943614,394.0400374520268 C399.7204477172472,394.0400374520268 400.09925874978217,393.98145677687353 400.49320995681046,393.86430209331047 C400.88717449732576,393.7471407430039 401.3164861118894,393.57139871754407 401.78115813398836,393.33708268367445 C402.3670448864432,394.957781362531 402.6599815959271,395.7681307019593 402.6599815959271,395.7681307019593 C402.0336943778493,396.13913497785325 401.38719359347306,396.4271516306326 400.7204992430288,396.6321806602973 C400.0537982258411,396.83720968996204 399.3769970922476,396.9397242047944 398.6900958422484,396.9397242047944 C397.88197319514984,396.9397242047944 397.1344645799727,396.7883957940394 396.4475633299735,396.48573230578586 C395.7606620799743,396.18306881753233 395.2101290683113,395.6997899143189 394.7959642949845,395.03588892940206 C394.38180618840124,394.3719879444852 394.17472380173785,393.5128247091343 394.17472380173785,392.45839255660576 C394.17472380173785,382.519404674571 394.17472380173785,377.54990740018184 394.17472380173785,377.54990740018184 C394.17472380173785,377.54990740018184 397.6294369512889,377.54990740018184 397.6294369512889,377.54990740018184 C397.6294369512889,377.54990740018184 397.6294369512889,391.87259913855996 397.6294369512889,391.87259913855996 C397.6294369512889,391.87259913855996 397.6294369512889,391.87259913855996 397.6294369512889,391.87259913855996 C397.6294369512889,391.87259913855996 397.6294369512889,391.87259913855996 397.6294369512889,391.87259913855996 C397.6294369512889,391.87259913855996 397.6294369512889,391.87259913855996 397.6294369512889,391.87259913855996 C397.6294369512889,391.87259913855996 397.6294369512889,391.87259913855996 397.6294369512889,391.87259913855996 ZM391.9018842735022,381.79692301450086 C391.9018842735022,381.79692301450086 402.38724511925466,381.79692301450086 402.38724511925466,381.79692301450086 C402.38724511925466,381.79692301450086 402.38724511925466,384.1986773618373 402.38724511925466,384.1986773618373 C402.38724511925466,384.1986773618373 391.9018842735022,384.1986773618373 391.9018842735022,384.1986773618373 C391.9018842735022,384.1986773618373 391.9018842735022,381.79692301450086 391.9018842735022,381.79692301450086 C391.9018842735022,381.79692301450086 391.9018842735022,381.79692301450086 391.9018842735022,381.79692301450086 C391.9018842735022,381.79692301450086 391.9018842735022,381.79692301450086 391.9018842735022,381.79692301450086 C391.9018842735022,381.79692301450086 391.9018842735022,381.79692301450086 391.9018842735022,381.79692301450086 C391.9018842735022,381.79692301450086 391.9018842735022,381.79692301450086 391.9018842735022,381.79692301450086 ZM411.14525272360333,389.85160251286106 C410.01387968431663,389.85160251286106 409.17545668800085,390.0175777590903 408.629970401169,390.3495282515487 C408.0844974478241,390.6814787440071 407.81174763766467,391.2282250453609 407.81174763766467,391.989753822123 C407.81174763766467,392.71223548219314 408.0895375059117,393.2882687877518 408.64513057589284,393.717853738799 C409.20071031238695,394.14743202310274 409.96337243554444,394.3622278319981 410.9331169453653,394.3622278319981 C411.8018469576418,394.3622278319981 412.5796559220362,394.21577947748665 413.2665571720354,393.92287610172025 C413.9534717555216,393.62997939269735 414.4989447088665,393.2345681688421 414.903002699044,392.73664243015446 C415.30706068922154,392.23871669146683 415.51919646745955,391.67733022138236 415.53941003375803,391.05248301990105 C415.9838684895585,392.94655151606275 416.20609771745876,393.89358909751536 416.20609771745876,393.89358909751536 C415.70102522973684,394.9089674666084 414.9333097150047,395.670502910114 413.9029645067494,396.17818876128877 C412.8726059650071,396.685881279207 411.640218428176,396.9397242047944 410.20580189625616,396.9397242047944 C409.054241957645,396.9397242047944 408.0541904318634,396.72493506264254 407.20566065239836,396.2953501115953 C406.35713087293334,395.8657651605481 405.70053663889485,395.2848517987459 405.2358646167959,394.55261002618863 C404.7712059281839,393.8203615868879 404.53886991713443,393.00513219121603 404.53886991713443,392.1069151724296 C404.53886991713443,390.70100563572487 405.06919602924245,389.5782326955559 406.1298482534585,388.73858968517925 C407.1905138111615,387.8989533415461 408.6905844330904,387.46936839049886 410.6300734527322,387.4498414987811 C414.1857944330841,387.4498414987811 415.96366825674704,387.4498414987811 415.96366825674704,387.4498414987811 C415.96366825674704,387.4498414987811 415.96366825674704,389.85160251286106 415.96366825674704,389.85160251286106 C415.96366825674704,389.85160251286106 411.14525272360333,389.85160251286106 411.14525272360333,389.85160251286106 C411.14525272360333,389.85160251286106 411.14525272360333,389.85160251286106 411.14525272360333,389.85160251286106 C411.14525272360333,389.85160251286106 411.14525272360333,389.85160251286106 411.14525272360333,389.85160251286106 C411.14525272360333,389.85160251286106 411.14525272360333,389.85160251286106 411.14525272360333,389.85160251286106 C411.14525272360333,389.85160251286106 411.14525272360333,389.85160251286106 411.14525272360333,389.85160251286106 ZM415.5090896843103,386.9226287558886 C415.5090896843103,385.90725038679557 415.1858459588657,385.11642793908504 414.53935850797643,384.550161412757 C413.8928577236002,383.98388821968547 412.9332199969285,383.7007516231497 411.6604319944745,383.7007516231497 C410.8927164797424,383.7007516231497 410.1098407902864,383.837439865174 409.31183159308057,384.11080968247916 C408.51380906238774,384.3841794997843 407.7107331401203,384.7844774466266 406.9026171597652,385.31169018951914 C405.9530728827558,383.8667268693789 405.4783074109946,383.1442518760523 405.4783074109946,383.1442518760523 C406.22580935942824,382.6951400332873 406.93292417572593,382.3241357573934 407.59962519291366,382.0312390483705 C408.2663262101014,381.7383423393476 408.9784810844867,381.5137864179651 409.7360898160696,381.3575779509665 C410.49369854765246,381.20136281722444 411.38768218431505,381.1232552503534 412.41804072605737,381.1232552503534 C414.4989447088665,381.1232552503534 416.10002982833976,381.60654082031033 417.2212960844772,382.5730986267372 C418.3425623406147,383.53966309990756 418.91330225183265,384.8723451259848 418.9335024846441,386.5711513717124 C418.9537160509426,393.3859032463406 418.96380950060484,396.79327585028295 418.96380950060484,396.79327585028295 C418.96380950060484,396.79327585028295 415.53941003375803,396.79327585028295 415.53941003375803,396.79327585028295 C415.53941003375803,396.79327585028295 415.5090896843103,386.9226287558886 415.5090896843103,386.9226287558886 C415.5090896843103,386.9226287558886 415.5090896843103,386.9226287558886 415.5090896843103,386.9226287558886 C415.5090896843103,386.9226287558886 415.5090896843103,386.9226287558886 415.5090896843103,386.9226287558886 C415.5090896843103,386.9226287558886 415.5090896843103,386.9226287558886 415.5090896843103,386.9226287558886 C415.5090896843103,386.9226287558886 415.5090896843103,386.9226287558886 415.5090896843103,386.9226287558886 ZM423.78222503374855,375.0602787067437 C423.78222503374855,375.0602787067437 427.2672518660038,375.0602787067437 427.2672518660038,375.0602787067437 C427.2672518660038,375.0602787067437 427.2672518660038,396.79327585028295 427.2672518660038,396.79327585028295 C427.2672518660038,396.79327585028295 423.78222503374855,396.79327585028295 423.78222503374855,396.79327585028295 C423.78222503374855,396.79327585028295 423.78222503374855,375.0602787067437 423.78222503374855,375.0602787067437 C423.78222503374855,375.0602787067437 423.78222503374855,375.0602787067437 423.78222503374855,375.0602787067437 C423.78222503374855,375.0602787067437 423.78222503374855,375.0602787067437 423.78222503374855,375.0602787067437 C423.78222503374855,375.0602787067437 423.78222503374855,375.0602787067437 423.78222503374855,375.0602787067437 C423.78222503374855,375.0602787067437 423.78222503374855,375.0602787067437 423.78222503374855,375.0602787067437 ZM434.38880060985684,381.24041660065996 C434.38880060985684,381.24041660065996 438.38900671298325,381.24041660065996 438.38900671298325,381.24041660065996 C438.38900671298325,381.24041660065996 426.99450205584435,392.6634215862705 426.99450205584435,392.6634215862705 C426.99450205584435,392.6634215862705 426.99450205584435,388.6507220058211 426.99450205584435,388.6507220058211 C426.99450205584435,388.6507220058211 434.38880060985684,381.24041660065996 434.38880060985684,381.24041660065996 C434.38880060985684,381.24041660065996 434.38880060985684,381.24041660065996 434.38880060985684,381.24041660065996 C434.38880060985684,381.24041660065996 434.38880060985684,381.24041660065996 434.38880060985684,381.24041660065996 C434.38880060985684,381.24041660065996 434.38880060985684,381.24041660065996 434.38880060985684,381.24041660065996 C434.38880060985684,381.24041660065996 434.38880060985684,381.24041660065996 434.38880060985684,381.24041660065996 ZM432.0856673991475,386.77618040137713 C432.0856673991475,386.77618040137713 438.843571951933,396.79327585028295 438.843571951933,396.79327585028295 C438.843571951933,396.79327585028295 434.7221644519377,396.79327585028295 434.7221644519377,396.79327585028295 C434.7221644519377,396.79327585028295 429.5097843782787,388.79717036033253 429.5097843782787,388.79717036033253 C429.5097843782787,388.79717036033253 432.0856673991475,386.77618040137713 432.0856673991475,386.77618040137713 C432.0856673991475,386.77618040137713 432.0856673991475,386.77618040137713 432.0856673991475,386.77618040137713 C432.0856673991475,386.77618040137713 432.0856673991475,386.77618040137713 432.0856673991475,386.77618040137713 C432.0856673991475,386.77618040137713 432.0856673991475,386.77618040137713 432.0856673991475,386.77618040137713 C432.0856673991475,386.77618040137713 432.0856673991475,386.77618040137713 432.0856673991475,386.77618040137713 ZM447.81370200103265,381.1232552503534 C449.47036109433975,381.1232552503534 450.9300179171587,381.4552057428118 452.1927124699505,382.11910672772865 C453.4553936892553,382.7830077126455 454.44028504031303,383.70563834613677 455.1473865231237,384.886991961459 C455.8545013394214,386.0683455767812 456.20805208082675,387.44008138629397 456.20805208082675,389.00219938999726 C456.20805208082675,390.56432406044405 455.8545013394214,391.9409399262004 455.1473865231237,393.1320536540097 C454.44028504031303,394.3231740485626 453.4553936892553,395.2506847382974 452.1927124699505,395.91458572321426 C450.9300179171587,396.5784867081311 449.47036109433975,396.9104372005895 447.81370200103265,396.9104372005895 C446.15705624121256,396.9104372005895 444.692332693332,396.5784867081311 443.41954469087796,395.91458572321426 C442.1467566884239,395.2506847382974 441.15681194579156,394.3231740485626 440.4497104629809,393.1320536540097 C439.7426089801702,391.9409399262004 439.38904490527784,390.56432406044405 439.38904490527784,389.00219938999726 C439.38904490527784,387.44008138629397 439.7426089801702,386.0683455767812 440.4497104629809,384.886991961459 C441.15681194579156,383.70563834613677 442.1467566884239,382.7830077126455 443.41954469087796,382.11910672772865 C444.692332693332,381.4552057428118 446.15705624121256,381.1232552503534 447.81370200103265,381.1232552503534 C447.81370200103265,381.1232552503534 447.81370200103265,381.1232552503534 447.81370200103265,381.1232552503534 C447.81370200103265,381.1232552503534 447.81370200103265,381.1232552503534 447.81370200103265,381.1232552503534 C447.81370200103265,381.1232552503534 447.81370200103265,381.1232552503534 447.81370200103265,381.1232552503534 C447.81370200103265,381.1232552503534 447.81370200103265,381.1232552503534 447.81370200103265,381.1232552503534 ZM447.81370200103265,383.84720664440465 C446.84395749121177,383.84720664440465 445.9853342620845,384.0668758428001 445.23781898016387,384.5062209063344 C444.4903036982432,384.94556596986877 443.909470337363,385.5557730026194 443.49530556403624,386.3368353378428 C443.0811541241965,387.1178910063227 442.8740717375331,388.01611469185264 442.8740717375331,389.03149306094565 C442.8740717375331,390.0663916550129 443.0811541241965,390.97437545303 443.49530556403624,391.7554377882534 C443.909470337363,392.5365001234768 444.4903036982432,393.1467004894839 445.23781898016387,393.58604555301827 C445.9853342620845,394.0253906165526 446.84395749121177,394.24506648169154 447.81370200103265,394.24506648169154 C448.78344651085354,394.24506648169154 449.6370296818932,394.0253906165526 450.3744381806646,393.58604555301827 C451.111846679436,393.1467004894839 451.6876399822286,392.5365001234768 452.10179142206835,391.7554377882534 C452.5159428619081,390.97437545303 452.7230385820585,390.0663916550129 452.7230385820585,389.03149306094565 C452.7230385820585,388.01611469185264 452.5159428619081,387.1178910063227 452.10179142206835,386.3368353378428 C451.6876399822286,385.5557730026194 451.111846679436,384.94556596986877 450.3744381806646,384.5062209063344 C449.6370296818932,384.0668758428001 448.78344651085354,383.84720664440465 447.81370200103265,383.84720664440465 C447.81370200103265,383.84720664440465 447.81370200103265,383.84720664440465 447.81370200103265,383.84720664440465 C447.81370200103265,383.84720664440465 447.81370200103265,383.84720664440465 447.81370200103265,383.84720664440465 C447.81370200103265,383.84720664440465 447.81370200103265,383.84720664440465 447.81370200103265,383.84720664440465 C447.81370200103265,383.84720664440465 447.81370200103265,383.84720664440465 447.81370200103265,383.84720664440465 ZM468.9056517563804,384.16939035763244 C467.7540651507952,384.11080968247916 466.75906701658823,384.3011985434132 465.92065735375945,384.74054360694754 C465.08222102395666,385.1798886704819 464.4357335730674,385.790089036489 463.9811683341177,386.5711513717124 C463.52658976168095,387.3522137069358 463.2993071422061,388.25043072572225 463.2993071422061,389.26580909481527 C462.65280635782983,389.1877015279442 462.3295626323852,389.1486477445087 462.3295626323852,389.1486477445087 C462.3295626323852,387.4107877153456 462.5922056593954,385.9463041702311 463.1174783799288,384.75518377567823 C463.6427644339492,383.5640700478689 464.4003731655321,382.66096630609536 465.39031790816443,382.0458858838447 C466.3802626507968,381.4307987948505 467.55203615570645,381.1232552503534 468.9056517563804,381.1232552503534 C468.9056517563804,383.1540119885394 468.9056517563804,384.16939035763244 468.9056517563804,384.16939035763244 C468.9056517563804,384.16939035763244 468.9056517563804,384.16939035763244 468.9056517563804,384.16939035763244 C468.9056517563804,384.16939035763244 468.9056517563804,384.16939035763244 468.9056517563804,384.16939035763244 C468.9056517563804,384.16939035763244 468.9056517563804,384.16939035763244 468.9056517563804,384.16939035763244 C468.9056517563804,384.16939035763244 468.9056517563804,384.16939035763244 468.9056517563804,384.16939035763244 ZM459.84458732591156,381.24041660065996 C459.84458732591156,381.24041660065996 463.3296141581668,381.24041660065996 463.3296141581668,381.24041660065996 C463.3296141581668,381.24041660065996 463.3296141581668,396.79327585028295 463.3296141581668,396.79327585028295 C463.3296141581668,396.79327585028295 459.84458732591156,396.79327585028295 459.84458732591156,396.79327585028295 C459.84458732591156,396.79327585028295 459.84458732591156,381.24041660065996 459.84458732591156,381.24041660065996 C459.84458732591156,381.24041660065996 459.84458732591156,381.24041660065996 459.84458732591156,381.24041660065996 C459.84458732591156,381.24041660065996 459.84458732591156,381.24041660065996 459.84458732591156,381.24041660065996 C459.84458732591156,381.24041660065996 459.84458732591156,381.24041660065996 459.84458732591156,381.24041660065996 C459.84458732591156,381.24041660065996 459.84458732591156,381.24041660065996 459.84458732591156,381.24041660065996 Z" fill="#ffffff"></path></g></g></g></g><g><g><path d="M299.24130964279175,361.8732566833496 C313.29289054870605,361.8732566833496 327.34447288513184,361.8732566833496 341.82186126708984,361.8732566833496 C341.82186126708984,366.5665693283081 341.82186126708984,371.2598819732666 341.82186126708984,376.09541511535645 C327.77027702331543,376.09541511535645 313.7186965942383,376.09541511535645 299.24130964279175,376.09541511535645 C299.24130964279175,371.40210151672363 299.24130964279175,366.70879077911377 299.24130964279175,361.8732566833496 C299.24130964279175,361.8732566833496 299.24130964279175,361.8732566833496 299.24130964279175,361.8732566833496 C299.24130964279175,361.8732566833496 299.24130964279175,361.8732566833496 299.24130964279175,361.8732566833496 C299.24130964279175,361.8732566833496 299.24130964279175,361.8732566833496 299.24130964279175,361.8732566833496 C299.24130964279175,361.8732566833496 299.24130964279175,361.8732566833496 299.24130964279175,361.8732566833496 Z" fill="#ffffff"></path></g></g></g></g></g></g></g></svg> 